<?xml version="1.0" standalone="no"?>
<!DOCTYPE svg PUBLIC "-//W3C//DTD SVG 20010904//EN"
 "http://www.w3.org/TR/2001/REC-SVG-20010904/DTD/svg10.dtd">
<svg version="1.0" xmlns="http://www.w3.org/2000/svg"
 width="700.000000pt" height="700.000000pt" viewBox="0 0 700.000000 700.000000"
 preserveAspectRatio="xMidYMid meet">
<metadata>
Created by potrace 1.14, written by Peter Selinger 2001-2017
</metadata>
<g transform="translate(0.000000,700.000000) scale(0.100000,-0.100000)"
fill="#000000" stroke="none">
<path d="M4913 6558 c-17 -29 -46 -80 -64 -113 -18 -33 -42 -76 -54 -95 -12
-19 -38 -64 -57 -100 -20 -36 -45 -82 -57 -102 l-22 -37 113 -74 c342 -223
631 -545 812 -904 85 -169 168 -413 202 -592 18 -93 20 -104 31 -201 16 -129
7 -556 -12 -612 -2 -7 -7 -31 -10 -53 -18 -125 -88 -360 -151 -507 -262 -613
-792 -1099 -1419 -1301 -92 -29 -222 -63 -279 -71 -21 -4 -41 -8 -45 -10 -3
-2 -28 -6 -56 -9 -27 -4 -79 -10 -115 -14 -83 -10 -372 -10 -470 0 -64 7 -186
26 -255 41 -305 63 -662 228 -920 425 -95 73 -113 89 -240 216 -123 122 -232
258 -321 397 -27 43 -52 78 -55 78 -6 0 -487 -275 -496 -283 -2 -3 20 -45 51
-94 357 -576 912 -1013 1559 -1227 174 -58 389 -108 527 -123 30 -3 62 -7 70
-9 8 -1 18 -3 23 -3 4 -1 7 -68 7 -151 0 -113 -3 -150 -12 -151 -7 -1 -335 -2
-728 -3 l-715 -1 -3 -292 -2 -292 1750 0 1750 0 0 290 c0 224 -3 289 -12 290
-7 1 -330 3 -718 4 -388 1 -711 3 -717 4 -10 1 -13 38 -13 151 l0 149 33 5
c17 3 68 11 112 17 44 6 121 19 170 30 50 11 101 22 115 25 51 10 258 77 352
115 744 296 1337 887 1634 1626 139 345 207 696 208 1068 0 138 -8 303 -18
365 -2 14 -7 46 -10 71 -24 171 -72 367 -133 543 -46 132 -73 197 -143 336
-74 149 -87 173 -177 309 -143 218 -297 396 -522 599 -96 88 -430 322 -458
322 -5 0 -22 -24 -40 -52z"/>
<path d="M3397 6124 c-1 -1 -34 -5 -72 -8 -92 -8 -139 -14 -200 -26 -27 -6
-61 -12 -75 -15 -200 -38 -505 -171 -704 -308 -351 -240 -626 -597 -766 -993
-88 -248 -119 -433 -118 -704 2 -466 155 -898 446 -1264 54 -68 215 -233 278
-286 249 -209 573 -366 899 -436 129 -27 284 -41 450 -38 88 1 174 4 190 7 17
3 53 8 80 12 28 3 70 11 95 17 25 5 59 12 75 15 68 11 308 98 420 152 99 49
336 195 355 219 3 4 28 25 55 46 118 94 354 359 408 458 7 13 26 43 42 68 36
56 145 283 145 302 0 8 4 18 9 24 23 24 89 272 107 404 3 25 10 68 14 95 9 53
6 418 -3 473 -4 18 -9 52 -12 75 -4 23 -13 71 -21 107 -9 36 -17 74 -20 85 -9
49 -66 208 -104 295 -161 368 -427 680 -770 903 -90 58 -300 167 -322 167 -8
0 -18 4 -23 9 -23 20 -298 100 -405 116 -25 4 -54 9 -64 11 -56 10 -381 26
-389 18z"/>
</g>
</svg>
